<svg width="723" height="224" viewBox="0 0 723 224" fill="none" xmlns="http://www.w3.org/2000/svg">
<path d="M83.0398 173.76C66.5598 173.76 52.0798 170.16 39.5998 162.96C27.1198 155.6 17.3598 145.44 10.3198 132.48C3.43984 119.36 -0.000155807 104.16 -0.000155807 86.8799C-0.000155807 69.7599 3.43984 54.7199 10.3198 41.7599C17.3598 28.6399 27.1198 18.3999 39.5998 11.0399C52.0798 3.67988 66.5598 -0.000120163 83.0398 -0.000120163C99.6799 -0.000120163 114.16 3.67988 126.48 11.0399C138.96 18.3999 148.64 28.6399 155.52 41.7599C162.56 54.7199 166.08 69.7599 166.08 86.8799C166.08 104.16 162.56 119.36 155.52 132.48C148.64 145.44 138.96 155.6 126.48 162.96C114.16 170.16 99.6799 173.76 83.0398 173.76ZM83.0398 154.56C95.1999 154.56 105.84 151.92 114.96 146.64C124.08 141.2 131.2 133.44 136.32 123.36C141.44 113.12 144 100.96 144 86.8799C144 72.7999 141.44 60.7199 136.32 50.6399C131.2 40.5599 124.08 32.7999 114.96 27.3599C105.84 21.9199 95.1999 19.1999 83.0398 19.1999C71.0398 19.1999 60.3998 21.9199 51.1198 27.3599C41.9998 32.7999 34.8798 40.5599 29.7598 50.6399C24.7998 60.7199 22.3198 72.7999 22.3198 86.8799C22.3198 100.96 24.7998 113.12 29.7598 123.36C34.8798 133.44 41.9998 141.2 51.1198 146.64C60.3998 151.92 71.0398 154.56 83.0398 154.56ZM187.624 223.68V51.8399H209.224V71.2799C213.064 65.5199 218.504 60.3999 225.544 55.9199C232.584 51.2799 241.544 48.9599 252.424 48.9599C264.104 48.9599 274.344 51.6799 283.144 57.1199C291.944 62.5599 298.824 69.9999 303.784 79.4399C308.744 88.8799 311.224 99.5999 311.224 111.6C311.224 123.6 308.744 134.32 303.784 143.76C298.824 153.04 291.944 160.4 283.144 165.84C274.344 171.12 264.024 173.76 252.184 173.76C242.424 173.76 233.864 171.84 226.504 168C219.144 164 213.384 158.48 209.224 151.44V223.68H187.624ZM249.304 155.04C257.144 155.04 264.024 153.2 269.944 149.52C276.024 145.84 280.744 140.72 284.104 134.16C287.624 127.6 289.384 120 289.384 111.36C289.384 102.72 287.624 95.1199 284.104 88.5599C280.744 81.9999 276.024 76.8799 269.944 73.1999C264.024 69.5199 257.144 67.6799 249.304 67.6799C241.624 67.6799 234.744 69.5199 228.664 73.1999C222.744 76.8799 218.104 81.9999 214.744 88.5599C211.384 95.1199 209.704 102.72 209.704 111.36C209.704 120 211.384 127.6 214.744 134.16C218.104 140.72 222.744 145.84 228.664 149.52C234.744 153.2 241.624 155.04 249.304 155.04ZM367.159 170.88L320.159 16.0799V14.8799H354.159L392.159 142.08H396.959L434.559 14.8799H466.959V16.0799L419.959 170.88H367.159ZM460.08 170.88V169.68L507.08 14.8799H559.68L606.88 169.68V170.88H572.48L534.68 40.8799H529.88L491.68 170.88H460.08ZM499.08 131.88L506.08 106.68H558.48L565.48 131.88H499.08ZM623.68 170.88V14.8799H657.28V144.48H722.48V170.88H623.68Z" fill="white"/>
</svg>
